<?xml version="1.0" encoding="UTF-8"?>
<svg xmlns="http://www.w3.org/2000/svg" viewBox="0 0 1200 630" width="1200" height="630">
  <defs>
    <linearGradient id="g58814" x1="74.24048101231685%" y1="6.269014643030211%" x2="25.75951898768315%" y2="93.7309853569698%">
      <stop offset="0%" stop-color="#7C3AED"/>
      <stop offset="100%" stop-color="#6D28D9"/>
    </linearGradient>
  </defs>
  <rect width="1200" height="630" fill="url(#g58814)"/>
  <path d="M 581.695794519037 150.4356658225879 L 670.4045782936737 150.4356658225879 L 670.4045782936737 90.64400247763842" fill="none" stroke="rgba(255,255,255,0.08893351437523962)" stroke-width="2"/><circle cx="581.695794519037" cy="150.4356658225879" r="4" fill="rgba(255,255,255,0.15)"/><path d="M 892.9382906481624 352.54235932137817 L 734.0638526482508 352.54235932137817 L 734.0638526482508 274.1333559853956" fill="none" stroke="rgba(255,255,255,0.11073925469070674)" stroke-width="2"/><circle cx="892.9382906481624" cy="352.54235932137817" r="4" fill="rgba(255,255,255,0.15)"/><path d="M 481.9678244367242 106.6683251154609 L 374.1603872971609 106.6683251154609 L 374.1603872971609 35.34903633641079" fill="none" stroke="rgba(255,255,255,0.14947081658989192)" stroke-width="2"/><circle cx="481.9678244367242" cy="106.6683251154609" r="4" fill="rgba(255,255,255,0.15)"/><path d="M 89.86516778357327 546.2934760516509 L 305.87747218320146 546.2934760516509 L 305.87747218320146 449.96136826928705" fill="none" stroke="rgba(255,255,255,0.1136908213607967)" stroke-width="2"/><circle cx="89.86516778357327" cy="546.2934760516509" r="4" fill="rgba(255,255,255,0.15)"/><path d="M 741.7764462716877 406.50257856585085 L 845.5787032982334 406.50257856585085 L 845.5787032982334 484.7310421336442" fill="none" stroke="rgba(255,255,255,0.07813109310343862)" stroke-width="2"/><circle cx="741.7764462716877" cy="406.50257856585085" r="4" fill="rgba(255,255,255,0.15)"/><text x="687.5952020520344" y="194.65860659256577" font-family="monospace" font-size="120" fill="rgba(255,255,255,0.07)">&lt;/&gt;</text><text x="138.36697405204177" y="293.63821744918823" font-family="monospace" font-size="26.512273414991796" fill="rgba(255,255,255,0.0775156064145267)">1</text><text x="786.1700586602092" y="464.79842371772975" font-family="monospace" font-size="47.01652652397752" fill="rgba(255,255,255,0.07651132537052036)">0</text><text x="843.9301775582135" y="336.51080356445163" font-family="monospace" font-size="49.5924438778311" fill="rgba(255,255,255,0.08483735986053945)">0</text><text x="377.9102708399296" y="406.0747861908749" font-family="monospace" font-size="26.071533161215484" fill="rgba(255,255,255,0.09497519029304385)">1</text><text x="565.0090645626187" y="311.54661296866834" font-family="monospace" font-size="41.99625790771097" fill="rgba(255,255,255,0.05339075082913041)">0</text><text x="588.7820280715823" y="201.62050335900858" font-family="monospace" font-size="37.19219773914665" fill="rgba(255,255,255,0.09923340136185288)">1</text><text x="889.1335248760879" y="253.19823254132643" font-family="monospace" font-size="39.32324500661343" fill="rgba(255,255,255,0.071939467638731)">1</text><rect x="876.0754779912531" y="357.8760939883068" width="16" height="16" rx="2" fill="rgba(255,255,255,0.1)"/><rect x="896.0754779912531" y="357.8760939883068" width="16" height="16" rx="2" fill="rgba(255,255,255,0.04)"/><rect x="916.0754779912531" y="357.8760939883068" width="16" height="16" rx="2" fill="rgba(255,255,255,0.04)"/><rect x="936.0754779912531" y="357.8760939883068" width="16" height="16" rx="2" fill="rgba(255,255,255,0.1)"/><rect x="956.0754779912531" y="357.8760939883068" width="16" height="16" rx="2" fill="rgba(255,255,255,0.1)"/><rect x="876.0754779912531" y="377.8760939883068" width="16" height="16" rx="2" fill="rgba(255,255,255,0.1)"/><rect x="896.0754779912531" y="377.8760939883068" width="16" height="16" rx="2" fill="rgba(255,255,255,0.1)"/><rect x="916.0754779912531" y="377.8760939883068" width="16" height="16" rx="2" fill="rgba(255,255,255,0.1)"/><rect x="936.0754779912531" y="377.8760939883068" width="16" height="16" rx="2" fill="rgba(255,255,255,0.1)"/><rect x="956.0754779912531" y="377.8760939883068" width="16" height="16" rx="2" fill="rgba(255,255,255,0.1)"/><rect x="876.0754779912531" y="397.8760939883068" width="16" height="16" rx="2" fill="rgba(255,255,255,0.04)"/><rect x="896.0754779912531" y="397.8760939883068" width="16" height="16" rx="2" fill="rgba(255,255,255,0.1)"/><rect x="916.0754779912531" y="397.8760939883068" width="16" height="16" rx="2" fill="rgba(255,255,255,0.04)"/><rect x="936.0754779912531" y="397.8760939883068" width="16" height="16" rx="2" fill="rgba(255,255,255,0.1)"/><rect x="956.0754779912531" y="397.8760939883068" width="16" height="16" rx="2" fill="rgba(255,255,255,0.1)"/>
  <circle cx="373.4112893231213" cy="522.857409522403" r="1.9100136440247297" fill="rgba(255,255,255,0.03882314252667129)"/><circle cx="1079.7550946474075" cy="57.16082061873749" r="1.8657056991942227" fill="rgba(255,255,255,0.0452208446059376)"/><circle cx="1112.4960302375257" cy="141.7270341468975" r="1.8062883424572647" fill="rgba(255,255,255,0.033570491890423)"/><circle cx="164.71919026225805" cy="261.0069056949578" r="1.272882904857397" fill="rgba(255,255,255,0.07443366649793462)"/><circle cx="1148.0303211137652" cy="482.77156344847754" r="2.8757114983163774" fill="rgba(255,255,255,0.037833571871742605)"/><circle cx="1199.1627370007336" cy="61.626033377833664" r="1.6746559706516564" fill="rgba(255,255,255,0.05249304227298125)"/><circle cx="227.08696285262704" cy="52.19791653798893" r="2.624583954922855" fill="rgba(255,255,255,0.06431765040149912)"/><circle cx="134.59507171064615" cy="449.00318193482235" r="2.625900174025446" fill="rgba(255,255,255,0.07460935605457053)"/><circle cx="520.1290966942906" cy="249.90484674694017" r="2.9627414038404822" fill="rgba(255,255,255,0.04507837403332814)"/><circle cx="28.23982397094369" cy="107.03461117576808" r="1.4252587398514152" fill="rgba(255,255,255,0.032844238665420564)"/><circle cx="1160.702108591795" cy="443.8273714366369" r="2.8464181222952902" fill="rgba(255,255,255,0.04148997721029445)"/><circle cx="1155.0482754595578" cy="40.11580540565774" r="2.752437547314912" fill="rgba(255,255,255,0.06299938247073442)"/>
  <text x="600" y="335" font-family="system-ui, -apple-system, 'Segoe UI', sans-serif" font-size="42" font-weight="700" fill="rgba(0,0,0,0.15)" text-anchor="middle" letter-spacing="1">Google Cloud Associate Cloud Engineer</text>
  <text x="600" y="332" font-family="system-ui, -apple-system, 'Segoe UI', sans-serif" font-size="42" font-weight="700" fill="white" text-anchor="middle" letter-spacing="1">Google Cloud Associate Cloud Engineer</text>
  <g transform="translate(1140, 575)">
    <rect x="0" y="0" width="40" height="40" rx="8" fill="rgba(255,255,255,0.15)"/>
    <text x="20" y="29" font-family="sans-serif" font-weight="bold" font-size="24" fill="rgba(255,255,255,0.6)" text-anchor="middle">K</text>
  </g>
</svg>